<svg xmlns="http://www.w3.org/2000/svg" viewBox="0 0 1093.7 497.97"><defs><style>.cls-1{fill:#fff;}</style></defs><g id="Слой_2" data-name="Слой 2"><g id="Слой_1-2" data-name="Слой 1"><path class="cls-1" d="M47.25,123.14H24.54v98.37H0V6.33H24.54v93.75H55.23A30.41,30.41,0,0,0,85.91,69.34v-63h24.54v63A52.08,52.08,0,0,1,100,101a53.11,53.11,0,0,1-26.69,19.36l49.39,101.14H95.11Z"/><path class="cls-1" d="M233.17,123.14H171.81v98.37H147.27V58.59q0-22.76,16.26-39.05t39-16.29q22.71,0,39,16.29t16.26,39.05V221.51H233.17Zm-61.36-23.06h61.36V58.59a30.68,30.68,0,1,0-61.36,0Z"/><path class="cls-1" d="M294.53,41.55A35.22,35.22,0,0,1,329.75,6.33h20q23,0,39,15.37A51.31,51.31,0,0,1,405,60.12V70.88q0,23.67-16.27,39.66-15.95,15.67-39,15.67H319.08v95.3H294.53Zm24.55,60.07h30.68a29.08,29.08,0,0,0,21.78-9.22,29.35,29.35,0,0,0,8.9-21.52V60.12a30.43,30.43,0,0,0-30.68-30.74H319.08Z"/><path class="cls-1" d="M515.43,6.33H540V169.25q0,22.75-16.26,39t-39,16.29q-22.71,0-39-16.29t-16.26-39V6.33h24.54V169.25a30.68,30.68,0,1,0,61.36,0Z"/><path class="cls-1" d="M662.7,58.59a30.68,30.68,0,1,0-61.36,0V70.88A30.41,30.41,0,0,0,632,101.62q23,0,39,15.37,16.26,15.67,16.27,38.43v13.83q0,22.75-16.27,39t-39,16.29q-22.71,0-39-16.29t-16.26-39V152.34h24.55v16.91a30.68,30.68,0,1,0,61.36,0V155.42A30.41,30.41,0,0,0,632,124.68q-23,0-39-15.37-16.26-15.69-16.26-38.43V58.59q0-22.76,16.26-39.05T632,3.25q22.69,0,39,16.29t16.27,39.05v16.9H662.7Z"/><path class="cls-1" d="M708.72,6.33H819.17v23h-43V221.51H751.67V29.38H708.72Z"/><path class="cls-1" d="M843.71,45h24.54V221.51H843.71Z"/><path class="cls-1" d="M929.62,221.51H905.07V46.29q0-18.45,10.74-30.74Q927.15,3.26,945,3.25t29.14,12.3q10.74,12.3,10.74,30.74V181.54q0,18.45,15.34,18.45t15.34-18.45V6.33h24.55V181.54q0,18.45-10.74,30.74-11.35,12.3-29.15,12.3T971,212.28Q960.29,200,960.3,181.54V46.29q0-18.45-15.34-18.44T929.62,46.29Z"/><path class="cls-1" d="M1062.4,193.23a18.24,18.24,0,1,1,25.78,25.82,18.24,18.24,0,1,1-25.78-25.82Z"/><path class="cls-1" d="M0,332q0-22.75,16.26-39t39-16.29q22.7,0,39,16.29t16.26,39v31a33.57,33.57,0,0,1-33.56,33.56h-2l47.86,98.37H95.11L47.25,396.53H24.54V494.9H0Zm24.54,41.5H85.91V332a30.41,30.41,0,0,0-30.68-30.74A30.41,30.41,0,0,0,24.54,332Z"/><path class="cls-1" d="M171.81,373.48h61.36v23H171.81v46.11a30.68,30.68,0,1,0,61.36,0h24.55q0,22.75-16.26,39t-39,16.29q-22.71,0-39-16.29t-16.26-39V332q0-22.75,16.26-39t39-16.29q22.71,0,39,16.29t16.26,39H233.17a30.68,30.68,0,1,0-61.36,0Z"/><path class="cls-1" d="M316,442.64a30.68,30.68,0,1,0,61.36,0h24.54q0,22.75-16.26,39t-39,16.29q-22.71,0-39-16.29t-16.26-39V332q0-22.75,16.26-39t39-16.29q22.69,0,39,16.29t16.26,39H377.37A30.68,30.68,0,1,0,316,332Z"/><path class="cls-1" d="M438.73,332q0-22.75,16.26-39t39-16.29q22.69,0,39,16.29t16.26,39V442.64q0,22.75-16.26,39T494,498q-22.71,0-39-16.29t-16.26-39Zm24.55,110.66a30.68,30.68,0,1,0,61.36,0V332a30.68,30.68,0,1,0-61.36,0Z"/><path class="cls-1" d="M586,279.72h55.22q23,0,39,15.37,16.26,15.68,16.26,38.43v10.75a55.42,55.42,0,0,1-10.13,32.59,51.76,51.76,0,0,1-25.46,19.37l47.86,98.67H681.11l-46.33-95.3H610.54v95.3H586ZM610.54,375h30.68a30.92,30.92,0,0,0,30.68-30.74V333.52a30.39,30.39,0,0,0-30.68-30.74H610.54Z"/><path class="cls-1" d="M733.26,279.72h55.23q23,0,39,15.37,16.26,15.68,16.27,38.43V441.11a51.31,51.31,0,0,1-16.27,38.42q-15.94,15.38-39,15.37H733.26Zm24.55,23.06V471.84h30.68a30.41,30.41,0,0,0,30.68-30.73V333.52a30.41,30.41,0,0,0-30.68-30.74Z"/><path class="cls-1" d="M966.44,332a30.69,30.69,0,1,0-61.37,0v12.29A30.41,30.41,0,0,0,935.76,375q23,0,39,15.37Q991,406.07,991,428.81v13.83q0,22.75-16.26,39t-39,16.29q-22.71,0-39-16.29t-16.26-39v-16.9h24.54v16.9a30.69,30.69,0,1,0,61.37,0V428.81a30.41,30.41,0,0,0-30.68-30.74q-23,0-39-15.37Q880.53,367,880.53,344.27V332q0-22.75,16.26-39t39-16.29q22.69,0,39,16.29T991,332v16.9H966.44Z"/><path class="cls-1" d="M842.36,5.53a17.78,17.78,0,0,1,25.77,0,17.08,17.08,0,0,1,5.52,12.91,17.05,17.05,0,0,1-5.52,12.91,17.75,17.75,0,0,1-25.77,0,17.05,17.05,0,0,1-5.52-12.91A17.08,17.08,0,0,1,842.36,5.53Z"/></g></g></svg>