<svg xmlns="http://www.w3.org/2000/svg" viewBox="0 0 371.67 371.67"><defs><style>.cls-1{fill:#1d1d1b;}.cls-2{fill:#fff;}</style></defs><g id="Слой_2" data-name="Слой 2"><g id="Слой_1-2" data-name="Слой 1"><circle class="cls-1" cx="185.83" cy="185.83" r="185.83"/><path class="cls-2" d="M119.07,293.42H94.52V118.21q0-18.45,10.74-30.74,11.34-12.3,29.15-12.3t29.14,12.3q10.74,12.3,10.74,30.74V253.46q0,18.45,15.34,18.45T205,253.46V78.24h24.55V253.46q0,18.45-10.74,30.74-11.35,12.3-29.15,12.3t-29.15-12.3q-10.74-12.29-10.73-30.74V118.21q0-18.45-15.34-18.45t-15.34,18.45Z"/><path class="cls-2" d="M251.85,265.14A18.24,18.24,0,1,1,277.63,291a18.24,18.24,0,1,1-25.78-25.82Z"/></g></g></svg>